<svg xmlns="http://www.w3.org/2000/svg" viewBox="0 0 434 127" width="434" height="127">
	<style>
		tspan { white-space:pre }
	</style>
	<path id="Bicos " fill="#ffffff" d="M21.1 40.98L21.1 123L3.37 123L3.37 40.63Q3.37 22.85 15.96 11.62Q28.73 0.4 47.41 0.4Q68 0.4 78.29 9.9Q88.78 19.22 88.78 32.86Q88.78 50.3 70.86 57.9L70.86 58.59Q95.45 64.98 95.45 89.5Q95.45 123 51.79 123L27.97 123L27.97 107.8L51.6 107.8Q64.76 107.8 70.86 102.97Q76.96 98.13 76.96 87.43Q76.96 78.1 70.29 73.1Q63.8 68.09 52.56 68.09L33.68 68.09L33.68 53.76L45.88 53.76Q56.18 53.76 63.42 48.75Q70.86 43.57 70.86 34.94Q70.86 26.65 65.14 21.12Q59.61 15.6 47.03 15.6Q35.59 15.6 28.35 22.16Q21.1 28.55 21.1 40.98ZM140.25 40.12L140.25 123L123.47 123L123.47 54.62L107.84 54.62L115.47 40.12L140.25 40.12ZM122.71 22.85Q120.23 19.91 120.23 16.46Q120.23 13.01 122.71 10.24Q125.19 7.31 130.34 7.31Q135.48 7.31 137.96 10.24Q140.44 13.01 140.44 16.46Q140.44 19.91 137.96 22.85Q135.48 25.61 130.34 25.61Q125.19 25.61 122.71 22.85ZM228.32 104.87L239.76 115.06Q226.61 124.73 209.64 124.73Q188.48 124.73 175.71 112.47Q162.93 100.03 162.93 81.56Q162.93 63.43 176.28 50.99Q189.81 38.39 209.64 38.39Q226.61 38.39 239.76 48.06L228.51 58.42Q220.5 52.89 209.64 52.89Q196.49 52.89 188.67 60.84Q181.04 68.61 181.04 81.56Q181.04 94.51 188.67 102.45Q196.49 110.22 209.64 110.22Q220.7 110.22 228.32 104.87ZM266.45 50.99Q279.79 38.39 299.81 38.39Q309.53 38.39 317.92 41.84Q326.5 45.12 332.79 50.99Q339.27 56.87 342.89 64.81Q346.51 72.58 346.51 81.56Q346.51 90.54 342.89 98.48Q339.46 106.25 333.17 112.12Q326.88 117.99 318.3 121.45Q309.72 124.73 299.81 124.73Q289.7 124.73 281.13 121.45Q272.74 117.99 266.45 112.12Q260.16 106.25 256.53 98.48Q253.1 90.54 253.1 81.56Q253.1 63.25 266.45 50.99ZM299.81 52.89Q286.46 52.89 278.27 60.84Q270.26 68.78 270.26 81.56Q270.26 94.34 278.27 102.28Q286.46 110.22 299.81 110.22Q313.34 110.22 321.35 102.28Q329.36 94.16 329.36 81.56Q329.36 68.95 321.35 61.01Q313.34 52.89 299.81 52.89ZM396.27 40.12L430.01 40.12L430.01 54.62L396.27 54.62Q390.74 54.62 386.74 56.52Q382.73 58.42 382.73 61.87Q382.73 63.95 383.69 65.67Q384.64 67.23 385.78 68.26Q387.12 69.3 389.6 70.51Q392.27 71.54 393.6 72.06Q395.13 72.41 405.8 75.51Q416.48 78.62 421.62 80.69Q426.77 82.77 429.44 86.39Q432.3 89.85 433.06 93.3Q433.82 96.58 433.82 99.86Q433.82 123 398.75 123L365.77 123L365.77 108.5L398.75 108.5Q416.67 108.5 416.67 99.86Q416.67 95.72 411.33 92.95Q406.18 90.19 398.56 88.29Q391.12 86.39 383.5 83.98Q376.06 81.39 370.72 75.86Q365.58 70.16 365.58 61.87Q365.58 51.34 374.54 45.81Q383.5 40.12 396.27 40.12Z" />
</svg>